<svg width="507" height="480" viewBox="0 0 507 480" fill="none" xmlns="http://www.w3.org/2000/svg">
<path fill-rule="evenodd" clip-rule="evenodd" d="M61.7413 337.66C81.116 231.944 153.122 157.533 276.03 115.01L217.086 89.7759L227.093 66L303.554 98.7329L303.604 98.6199L310.023 101.502L326.63 108.612L326.507 108.904L327 109.126L283.018 208.754L259.622 198.248L285.809 138.929C171.727 177.966 106.217 244.408 87.5992 338.82C119.335 346.122 143 374.548 143 408.5C143 447.988 110.988 480 71.5 480C32.0116 480 0 447.988 0 408.5C0 372.322 26.8696 342.42 61.7413 337.66ZM319 357.667L359 317L379 337.333L339 378L379 418.667L359 439L319 398.333L279 439L259 418.667L299 378L259 337.333L279 317L319 357.667ZM72 46.6667L112 6L132 26.3333L92 67L132 107.667L112 128L72 87.3333L32 128L12 107.667L52 67L12 26.3333L32 6L72 46.6667ZM435.5 143C396.012 143 364 110.988 364 71.5C364 32.0116 396.012 0 435.5 0C474.988 0 507 32.0116 507 71.5C507 110.988 474.988 143 435.5 143ZM435.5 117.26C460.773 117.26 481.26 96.7725 481.26 71.5C481.26 46.2274 460.773 25.74 435.5 25.74C410.227 25.74 389.74 46.2274 389.74 71.5C389.74 96.7725 410.227 117.26 435.5 117.26ZM71.5 454.26C96.7725 454.26 117.26 433.773 117.26 408.5C117.26 383.227 96.7725 362.74 71.5 362.74C46.2274 362.74 25.74 383.227 25.74 408.5C25.74 433.773 46.2274 454.26 71.5 454.26Z" fill="black"/>
</svg>
